<svg width="256" height="256" viewBox="0 0 456 388" fill="none" xmlns="http://www.w3.org/2000/svg">
    <path d="M0 0 C9.62204797 6.79203386 14.83818624 16.57692492 17 28 C18.36802553 41.3840848 15.63351489 52.75347857 8.26953125 63.9765625 C4.96489171 69.24364951 5.13847302 75.02549769 6 81 C6.98005228 84.22229311 8.21984012 87.28811062 9.5625 90.375 C9.88468506 91.13562744 10.20687012 91.89625488 10.53881836 92.67993164 C12.99553855 97.9838557 15.91054012 101.98133599 21 105 C23.89775572 106.02728441 26.78036459 106.53121908 29.8125 107 C40.47557073 109.02213845 49.23640334 113.18839315 56 122 C62.22294394 132.60324993 63.5915778 143.14953696 61.421875 155.21484375 C58.11988422 165.6761509 50.27277903 172.70776025 41.1640625 178.33203125 C37.31734604 181.29691921 36.12474314 184.05387676 35.49047852 188.86450195 C35.41683267 190.38425181 35.35983394 191.90486792 35.31640625 193.42578125 C35.28317764 194.25282059 35.24994904 195.07985992 35.2157135 195.93196106 C34.85312981 206.01371538 34.89105082 216.10101635 34.9375 226.1875 C34.94253415 228.12434778 34.94709361 230.06119685 34.95117188 231.99804688 C34.9620049 236.66539756 34.97915947 241.33268372 35 246 C36.91040052 246.8680908 38.82860737 247.71901783 40.75 248.5625 C41.81734375 249.03816406 42.8846875 249.51382812 43.984375 250.00390625 C47.02928909 251.0096745 48.13424072 251.30119052 51 250 C53.03985042 248.15003692 54.92585872 246.30644828 56.8125 244.3125 C57.88343373 243.20770979 58.95633503 242.10482327 60.03125 241.00390625 C60.54429687 240.47812988 61.05734375 239.95235352 61.5859375 239.41064453 C63.24867032 237.75193075 64.99317246 236.23440588 66.8125 234.75 C69.20417716 232.78819564 71.17359087 230.70100822 73.16015625 228.33203125 C77.67894049 223.10664749 82.74765008 218.54572716 87.859375 213.91210938 C95.59743549 206.85858667 95.59743549 206.85858667 99.87890625 197.55078125 C100.01189665 193.65115962 99.57596138 190.01641361 98.9375 186.1875 C97.4138262 175.49845558 99.12420506 167.13514175 105 158 C112.07683326 149.00028555 121.76606348 144.14981968 133.0390625 142.74609375 C141.42223322 142.27358776 149.95355608 145.14978887 157.1875 149.25 C161.88393664 151.66142088 165.81995088 152.11889061 171 151 C175.73942392 149.03849346 180.19778052 146.67584684 184.70068359 144.22802734 C188.81283278 142.03179562 193.00735219 140.0003481 197.1875 137.9375 C204.87680902 134.10827407 212.47668102 130.14606265 220 126 C219.938125 124.081875 219.938125 124.081875 219.875 122.125 C219.85842217 116.91127144 220.81688642 112.05992328 222 107 C213.83991509 100.08965782 205.533339 93.4420404 197 87 C196.01515625 86.24074219 195.0303125 85.48148437 194.015625 84.69921875 C187.28281788 79.61241558 181.15335446 75.32153057 172.31640625 75.6328125 C169.34260142 76.10420821 166.61161901 77.00295458 163.75 77.9375 C150.8134228 82.13032375 138.60229226 82.09668659 126.3125 75.9375 C115.50095032 69.6965815 106.805407 60.40685589 103.5078125 48.1640625 C101.17631389 33.63703273 102.54945971 20.31291234 111.24609375 8.12890625 C118.70898125 -0.92960975 129.07959153 -7.88901235 140.97509766 -9.22119141 C155.7874246 -10.05414111 166.44688916 -6.64248867 178.08984375 2.671875 C185.20215886 9.06067245 190.48848389 18.52325466 192 28 C192.08745157 29.95172917 192.13123539 31.90571014 192.140625 33.859375 C192.16962891 35.53386719 192.16962891 35.53386719 192.19921875 37.2421875 C192.23284423 39.56493231 192.25128437 41.88795079 192.25390625 44.2109375 C192.45019045 53.19868776 194.23016873 59.08967812 200.515625 65.609375 C201.86914062 66.66898438 201.86914062 66.66898438 203.25 67.75 C203.75160645 68.14920654 204.25321289 68.54841309 204.77001953 68.9597168 C206.49922481 70.32571119 208.24753677 71.66398626 210 73 C211.45055681 74.11583865 212.90107579 75.23172648 214.3515625 76.34765625 C217.26459509 78.58353103 220.18789044 80.80503216 223.1171875 83.01953125 C225.60451684 84.90053606 227.99795838 86.84151297 230.3515625 88.88671875 C232.76098293 91.25987933 232.76098293 91.25987933 235.5 91 C238.11764776 89.99307954 238.11764776 89.99307954 241 88.5 C248.17456803 84.91271598 256.46244051 85.11785807 264.125 87.125 C272.82075958 90.04175948 279.64726736 96.29410718 284.2578125 104.140625 C288.35396751 112.79124608 288.65393008 123.2661493 285.5625 132.3125 C281.10578181 141.6950646 273.7654972 148.52387103 264 152 C254.59036588 154.28562091 245.62252705 153.49766404 237 149 C234.27090937 147.07796299 231.62384178 145.06284859 229 143 C228.20529297 143.4125 227.41058594 143.825 226.59179688 144.25 C222.89516104 146.16788402 219.19772489 148.08421686 215.5 150 C214.8371701 150.34358551 214.17434021 150.68717102 213.49142456 151.04116821 C204.72733712 155.58250447 195.94470478 160.07156807 187.06640625 164.38671875 C181.76621792 167.17522548 177.20985989 169.82611626 174 175 C173.39625318 177.7591794 172.95792544 180.33845121 172.625 183.125 C171.1381126 193.07521643 167.64924791 201.46358731 160.125 208.43359375 C152.62465217 213.9623428 144.80237101 217.15113026 135.5 217.125 C134.5821875 217.12757813 133.664375 217.13015625 132.71875 217.1328125 C130.04144699 217.00202471 127.61877141 216.54956729 125 216 C118.59236274 215.26829591 114.05310763 215.73347043 108.73046875 219.515625 C106.66939867 221.28358579 104.97045445 223.25878598 103.32397461 225.41539001 C101.7989841 227.24058755 100.1317739 228.69243207 98.31640625 230.22875977 C94.17418832 233.80571896 90.29039732 237.58071841 86.4375 241.46484375 C85.76074219 242.14301651 85.08398438 242.82118927 84.38671875 243.51991272 C82.25542325 245.65674305 80.12765782 247.79704823 78 249.9375 C76.54320221 251.39932123 75.08617299 252.86091187 73.62890625 254.32226562 C70.08326027 257.878854 66.54077261 261.43856016 63 265 C63.34933594 265.89203125 63.69867188 266.7840625 64.05859375 267.703125 C64.51363281 268.87359375 64.96867188 270.0440625 65.4375 271.25 C65.88996094 272.41015625 66.34242188 273.5703125 66.80859375 274.765625 C70.5879415 285.0256248 70.32228063 296.99842061 66.390625 307.1875 C60.46836464 319.16510522 51.44378417 328.08744573 39 333 C29.02195181 335.76584494 14.28928922 335.67770258 5 331 C-6.63431359 324.1573262 -14.6511604 315.59924229 -19.140625 302.73046875 C-22.15334919 289.6525069 -20.61771497 277.23838098 -13.6484375 265.77734375 C-6.64699638 255.62720983 2.48736069 249.74527163 14 246 C14.76606168 232.81279533 15.14861081 219.62581872 15.23217773 206.41760254 C15.2440044 204.81330706 15.26104545 203.20904106 15.28344727 201.6048584 C15.31357263 199.31971879 15.32338224 197.03531665 15.328125 194.75 C15.34043152 194.07157043 15.35273804 193.39314087 15.36541748 192.69415283 C15.3425131 187.69118262 14.26454945 184.36894161 12 180 C9.58967438 177.77557481 9.58967438 177.77557481 6.75 176.0625 C-1.40874244 170.49383452 -8.45216344 163.43825825 -10.64453125 153.48828125 C-12.22270308 142.44107844 -11.43320962 130.98614987 -4.8125 121.625 C-2.65890369 118.50599845 -2.07434861 116.7917789 -2 113 C-2.62367657 109.82909701 -3.74987927 106.97442519 -5 104 C-5.47695312 102.86304688 -5.95390625 101.72609375 -6.4453125 100.5546875 C-9.76098874 93.08119516 -13.16668151 86.37295847 -21 83 C-25.11397968 81.92464988 -29.28882539 81.20084772 -33.4765625 80.47705078 C-46.02175665 78.25317243 -56.17012291 72.57997664 -64.00390625 62.39453125 C-71.54267032 51.23590135 -73.41153621 40.24822901 -72 27 C-71.13854317 23.02853799 -69.82057556 19.62402972 -68 16 C-67.59910156 15.15050781 -67.19820313 14.30101563 -66.78515625 13.42578125 C-60.46341595 1.46028439 -49.60914454 -4.6015882 -37.09765625 -8.609375 C-23.23096185 -11.19162722 -11.42990649 -7.75245832 0 0 Z " fill="#57A1FE" transform="translate(146,35)"/>
    <path d="M0 0 C9.59368457 9.15004598 14.94929839 20.69699647 15.33984375 33.99609375 C15.173322 46.26874678 10.14165472 57.74213059 1.55078125 66.44140625 C-8.2555691 75.00430007 -19.18858912 79.33941811 -32.20703125 79.14453125 C-41.07801951 78.46793045 -48.6137689 75.4339603 -56.37890625 71.23828125 C-61.67638628 68.57358497 -67.40864458 67.830994 -73.13256836 69.60180664 C-80.31607342 72.49849171 -87.11583962 75.97251321 -93.91015625 79.68359375 C-95.03228516 80.26625 -96.15441406 80.84890625 -97.31054688 81.44921875 C-104.07588662 84.96026269 -104.07588662 84.96026269 -108.15625 91.08203125 C-108.42566406 92.35304688 -108.69507813 93.6240625 -108.97265625 94.93359375 C-109.18148437 95.79726563 -109.3903125 96.6609375 -109.60546875 97.55078125 C-109.76789063 98.29585938 -109.9303125 99.0409375 -110.09765625 99.80859375 C-112.20914238 106.93485942 -117.11460251 112.23643185 -123.140625 116.44921875 C-129.75863528 119.87274319 -137.44920596 120.27084301 -144.5625 118.16796875 C-153.67402208 114.34749693 -158.60577143 108.63563446 -162.34765625 99.62109375 C-163.72282772 91.5075821 -162.7322067 83.75561606 -157.97265625 76.93359375 C-153.86970924 71.75804892 -149.58023783 68.09652811 -142.97265625 66.93359375 C-131.2608168 66.10182508 -131.2608168 66.10182508 -126.16796875 67.953125 C-119.07133781 70.13069758 -113.64199835 69.59319932 -106.9921875 66.265625 C-104.91116537 65.11388916 -102.84219846 63.9401314 -100.78515625 62.74609375 C-99.74423828 62.16794922 -98.70332031 61.58980469 -97.63085938 60.99414062 C-84.14472369 53.61908007 -84.14472369 53.61908007 -76.29296875 40.91015625 C-75.47209244 37.51299123 -74.9954177 34.1471422 -74.625 30.671875 C-73.19504826 18.05220385 -68.70518281 7.41502758 -58.97265625 -1.06640625 C-40.54364877 -13.87591611 -17.705959 -14.8883742 0 0 Z " fill="#606BFE" transform="translate(426.97265625,243.06640625)"/>
    <path d="M0 0 C8.7971492 6.16873267 13.49761208 13.61891474 16 24 C17.0966952 36.50997666 15.54838962 46.21009383 7.6484375 56.1953125 C5.97762642 58.0244943 4.23206093 59.56181325 2.3125 61.125 C-0.89371548 63.77083711 -2.65554731 65.96664192 -4 70 C-4.45475422 75.91689605 -3.7666011 81.56827002 -2.609375 87.359375 C-2.46348938 88.11164368 -2.31760376 88.86391235 -2.16729736 89.63897705 C-1.85895498 91.21282757 -1.54614526 92.78580907 -1.22900391 94.35791016 C-0.74896751 96.75515612 -0.29385518 99.15630026 0.16015625 101.55859375 C0.46464573 103.0966519 0.77058513 104.63442388 1.078125 106.171875 C1.21059631 106.88341736 1.34306763 107.59495972 1.47955322 108.32806396 C2.41821788 112.83400581 3.80577719 115.68656107 7 119 C9.34809664 120.523286 9.34809664 120.523286 11.875 121.75 C18.5292625 125.56785857 21.69234354 130.55254207 24.375 137.625 C25.84743143 145.57612974 24.65074696 151.82226021 21 159 C16.38241073 165.38376397 10.63603263 169.14321395 3 171 C-4.20669021 172.07763592 -10.76562381 170.8036814 -17 167 C-22.93777683 161.77798235 -27.41625788 156.04804268 -28.34375 148.02734375 C-28.82418902 137.7579598 -25.71817461 130.67791385 -19 123 C-15.03845057 115.07690115 -18.76813917 103.0684001 -20.39868164 94.69750977 C-20.8161164 92.54384192 -21.21076659 90.38680687 -21.60351562 88.22851562 C-21.86585291 86.84089286 -22.12947805 85.45351281 -22.39453125 84.06640625 C-22.63018799 82.82834229 -22.86584473 81.59027832 -23.10864258 80.31469727 C-23.98322895 77.06236662 -25.19655405 74.81322468 -27 72 C-27 71.34 -27 70.68 -27 70 C-29.30793089 68.84043278 -31.62216712 67.70290697 -33.953125 66.58984375 C-43.71835849 61.69565682 -51.17867133 55.92632289 -55.25 45.51171875 C-59.06861863 32.72332405 -58.18893871 22.66260408 -51.953125 10.90234375 C-46.99852252 3.53980447 -39.5457614 -1.79337934 -31.078125 -4.40625 C-20.09932377 -6.52398831 -9.75828716 -5.84362545 0 0 Z " fill="#62C8FE" transform="translate(66,151)"/>
    <path d="M0 0 C0.33 0 0.66 0 1 0 C1.78234595 10.21396096 -0.5260973 17.42885519 -7.125 25.3125 C-14.09774126 32.63042647 -22.07997129 36.02764098 -32.125 36.3125 C-42.23356359 36.19005441 -49.26727682 32.07942035 -57 26 C-57.79470703 26.4125 -58.58941406 26.825 -59.40820312 27.25 C-63.10483896 29.16788402 -66.80227511 31.08421686 -70.5 33 C-71.1628299 33.34358551 -71.82565979 33.68717102 -72.50857544 34.04116821 C-81.27266288 38.58250447 -90.05529522 43.07156807 -98.93359375 47.38671875 C-104.23378208 50.17522548 -108.79014011 52.82611626 -112 58 C-112.60374682 60.7591794 -113.04207456 63.33845121 -113.375 66.125 C-114.8618874 76.07521643 -118.35075209 84.46358731 -125.875 91.43359375 C-133.37534783 96.9623428 -141.19762899 100.15113026 -150.5 100.125 C-151.4178125 100.12757813 -152.335625 100.13015625 -153.28125 100.1328125 C-155.95855301 100.00202471 -158.38122859 99.54956729 -161 99 C-167.40763726 98.26829591 -171.94689237 98.73347043 -177.26953125 102.515625 C-179.33060133 104.28358579 -181.02954555 106.25878598 -182.67602539 108.41539001 C-184.2010159 110.24058755 -185.8682261 111.69243207 -187.68359375 113.22875977 C-191.82581168 116.80571896 -195.70960268 120.58071841 -199.5625 124.46484375 C-200.23925781 125.14301651 -200.91601562 125.82118927 -201.61328125 126.51991272 C-203.74457675 128.65674305 -205.87234218 130.79704823 -208 132.9375 C-209.45679779 134.39932123 -210.91382701 135.86091187 -212.37109375 137.32226562 C-215.91673973 140.878854 -219.45922739 144.43856016 -223 148 C-222.65066406 148.89203125 -222.30132812 149.7840625 -221.94140625 150.703125 C-221.48636719 151.87359375 -221.03132813 153.0440625 -220.5625 154.25 C-220.11003906 155.41015625 -219.65757812 156.5703125 -219.19140625 157.765625 C-215.4120585 168.0256248 -215.67771937 179.99842061 -219.609375 190.1875 C-225.53163536 202.16510522 -234.55621583 211.08744573 -247 216 C-256.97804819 218.76584494 -271.71071078 218.67770258 -281 214 C-296.48451709 204.89284481 -296.48451709 204.89284481 -298.68359375 197.79296875 C-298.84021484 196.90544922 -298.84021484 196.90544922 -299 196 C-298.05125 196.86625 -297.1025 197.7325 -296.125 198.625 C-285.71726713 207.5009496 -275.55358822 211.71611116 -261.8515625 211.4140625 C-250.93763122 210.24075954 -240.22958212 204.8165873 -232.75 196.75 C-223.97845996 185.71247878 -222.02901813 173.76765341 -223 160 C-223.95812818 155.11663701 -225.23608234 151.14587649 -228 147 C-228.50431458 143.73573038 -228.33290274 142.45707515 -226.3699646 139.76196289 C-225.60640656 139.0064917 -224.84284851 138.25102051 -224.05615234 137.47265625 C-223.19460541 136.60825928 -222.33305847 135.7438623 -221.44540405 134.85327148 C-220.02996811 133.4718396 -220.02996811 133.4718396 -218.5859375 132.0625 C-217.61280129 131.09615865 -216.64069891 130.12877519 -215.66958618 129.16040039 C-213.10845797 126.61268482 -210.5322469 124.08074691 -207.95300293 121.5513916 C-205.86226837 119.49591504 -203.78259872 117.42944556 -201.70345116 115.36225891 C-178.4315682 92.22922067 -178.4315682 92.22922067 -173.01171875 91.8671875 C-167.94718683 91.88421114 -162.98280043 92.16633632 -157.9375 92.625 C-147.33759692 93.41740879 -138.90389598 90.85926454 -130.375 84.5 C-122.37152575 77.15434555 -120.25570699 67.06190332 -118.93359375 56.76171875 C-117.58969441 51.34676031 -115.57321845 47.77035254 -110.92016602 44.5690918 C-108.34279218 43.10983756 -105.72763766 41.79204225 -103.0625 40.5 C-102.07701172 40.00733643 -101.09152344 39.51467285 -100.07617188 39.00708008 C-97.90957872 37.92495301 -95.73964298 36.84949963 -93.56689453 35.77978516 C-90.3881112 34.19365713 -87.23540367 32.56893571 -84.08946228 30.91928101 C-81.39602696 29.50840213 -78.69469113 28.11308185 -75.99215698 26.71972656 C-74.67132877 26.03534577 -73.35334081 25.34545341 -72.0383606 24.64990234 C-70.17987147 23.6696523 -68.31071922 22.7134479 -66.4375 21.76171875 C-65.36371094 21.20444092 -64.28992188 20.64716309 -63.18359375 20.07299805 C-59.34825739 18.78033675 -56.91020576 19.09894357 -53 20 C-50.99609375 21.12109375 -50.99609375 21.12109375 -49.4375 22.4375 C-42.8065043 27.97710987 -34.25218851 27.89155006 -26.01123047 27.28125 C-17.92475549 26.15043922 -11.26581287 21.30367539 -6.328125 15.01171875 C-3.26478897 10.37166564 -1.67399479 5.27952204 0 0 Z " fill="#466AD6" transform="translate(432,152)"/>
    <path d="M0 0 C-1.42929689 3.00904608 -3.11394715 5.71594984 -4.9375 8.5 C-10.94826518 18.46405573 -12.2798201 28.75701519 -9.8125 39.9375 C-6.71200187 51.36340976 -0.18323682 61.01025091 9.9375 67.375 C16.67386249 71.08102313 22.81718963 72.89342275 30.4375 73.8125 C37.81874548 74.88174584 43.56379436 77.30371457 48.703125 82.83203125 C50.38096815 85.14127327 51.69153892 87.46066852 53 90 C53.30599121 90.59167969 53.61198242 91.18335938 53.92724609 91.79296875 C62.22741856 108.18877519 62.22741856 108.18877519 60 117 C58.38245169 120.7647724 56.62731679 124.25898449 54.62890625 127.8359375 C50.78334325 135.30573613 50.76684263 144.91270191 53.25 152.875 C56.87193865 162.25142062 63.22719028 167.7429808 71.59765625 172.86328125 C75.79143455 176.59335723 77.73180679 180.60163549 78.34815979 186.11347961 C78.46211437 189.8632795 78.44952109 193.59267258 78.390625 197.34375 C78.38315155 198.72236302 78.37746384 200.10098676 78.37347412 201.47961426 C78.35830419 205.08343565 78.31909968 208.68659772 78.2746582 212.29016113 C78.23351681 215.97720423 78.21542314 219.66435533 78.1953125 223.3515625 C78.15259471 230.56800679 78.08445134 237.78391052 78 245 C75.03 245 72.06 245 69 245 C69.0721875 243.68515625 69.144375 242.3703125 69.21875 241.015625 C69.83658623 228.79802315 70.15469255 216.58242387 70.23217773 204.35021973 C70.24400309 202.7493421 70.26104294 201.14849401 70.28344727 199.54772949 C70.31355735 197.26991355 70.32337961 194.99283704 70.328125 192.71484375 C70.3374707 191.39605225 70.34681641 190.07726074 70.35644531 188.71850586 C69.85262125 183.46251656 68.6317468 179.43167594 64.546875 175.84765625 C63.62390625 175.25855469 62.7009375 174.66945312 61.75 174.0625 C53.59125756 168.49383452 46.54783656 161.43825825 44.35546875 151.48828125 C42.77729692 140.44107844 43.56679038 128.98614987 50.1875 119.625 C52.34109631 116.50599845 52.92565139 114.7917789 53 111 C52.37632343 107.82909701 51.25012073 104.97442519 50 102 C49.52304688 100.86304688 49.04609375 99.72609375 48.5546875 98.5546875 C45.23901126 91.08119516 41.83331849 84.37295847 34 81 C29.88602032 79.92464988 25.71117461 79.20084772 21.5234375 78.47705078 C8.97824335 76.25317243 -1.17012291 70.57997664 -9.00390625 60.39453125 C-16.54267032 49.23590135 -18.41153621 38.24822901 -17 25 C-15.12665087 16.363543 -10.66280194 7.49631095 -4.25 1.375 C-2 0 -2 0 0 0 Z " fill="#489CD5" transform="translate(91,37)"/>
    <path d="M0 0 C0.33 0 0.66 0 1 0 C2.02051611 12.55801772 -2.04637667 24.27233429 -10 34 C-19.20968628 43.32589684 -30.40777044 48.9774798 -43.625 49.25 C-53.4792759 49.1024809 -61.81801868 45.94510281 -70.40625 41.3046875 C-75.70373003 38.63999122 -81.43598833 37.89740025 -87.15991211 39.66821289 C-94.34341717 42.56489796 -101.14318337 46.03891946 -107.9375 49.75 C-109.05962891 50.33265625 -110.18175781 50.9153125 -111.33789062 51.515625 C-118.10323037 55.02666894 -118.10323037 55.02666894 -122.18359375 61.1484375 C-122.45300781 62.41945313 -122.72242188 63.69046875 -123 65 C-123.20882812 65.86367188 -123.41765625 66.72734375 -123.6328125 67.6171875 C-123.79523438 68.36226563 -123.95765625 69.10734375 -124.125 69.875 C-126.23648613 77.00126567 -131.14194626 82.3028381 -137.16796875 86.515625 C-143.78856799 89.94048872 -151.52157176 90.36618719 -158.625 88.19921875 C-162.41303706 86.58556481 -165.87581597 84.71668176 -169 82 C-168.505 81.01 -168.505 81.01 -168 80 C-167.45472656 80.28875 -166.90945313 80.5775 -166.34765625 80.875 C-159.94561676 84.02677329 -154.649777 85.39336752 -147.6796875 83.3046875 C-141.62625133 80.86279291 -135.91685106 77.61797933 -132.78515625 71.70703125 C-131.41257369 68.3662171 -130.29390691 64.99331104 -129.26953125 61.53125 C-129.03621094 60.7578125 -128.80289063 59.984375 -128.5625 59.1875 C-128.37816406 58.50042969 -128.19382812 57.81335938 -128.00390625 57.10546875 C-125.44206003 51.73256947 -120.46071046 48.87397492 -115.4140625 46.1171875 C-114.79405365 45.77624054 -114.1740448 45.43529358 -113.5352478 45.08401489 C-112.23144689 44.36916745 -110.92538238 43.65843442 -109.6171875 42.95166016 C-107.63288112 41.87925928 -105.65584595 40.7943606 -103.6796875 39.70703125 C-85.16141558 29.58355419 -85.16141558 29.58355419 -76 31 C-70.69512836 32.7459918 -65.7420633 35.0777312 -60.8125 37.6875 C-52.45316831 41.58852146 -42.22752107 42.45543888 -33.33203125 39.8828125 C-19.63028671 34.69588743 -11.26690127 28.56790312 -4.44140625 15.375 C-2.69660254 11.28960596 -1.8350382 7.44007483 -1.2890625 3.046875 C-1 1 -1 1 0 0 Z " fill="#4D55D5" transform="translate(441,273)"/>
    <path d="M0 0 C0.66 0.33 1.32 0.66 2 1 C1.52949219 1.60585937 1.05898438 2.21171875 0.57421875 2.8359375 C-5.96017146 11.62963033 -9.22617762 19.94713135 -8 31 C-6.38212207 40.32830521 -1.63787126 48.41554623 5.8125 54.3125 C9.46888966 56.86842287 13.35706988 58.62561567 17.5078125 60.23828125 C25.33696513 65.77268225 26.97214429 73.7814615 28.57424927 82.71177673 C28.87078359 84.45904933 29.16038677 86.20751113 29.44335938 87.95703125 C29.87566483 90.62910931 30.33730381 93.29479281 30.8046875 95.9609375 C31.09805878 97.67418815 31.38978277 99.38772186 31.6796875 101.1015625 C31.81398163 101.8902774 31.94827576 102.67899231 32.0866394 103.49160767 C33.24505867 110.69683447 33.95542051 116.53947983 30 123 C28.5019127 125.02141914 26.97852346 127.01145554 25.40234375 128.97265625 C21.13110033 135.1475179 21.26331614 141.73840199 22 149 C22.98389295 151.95167884 24.33838873 154.3862976 26 157 C26.29132812 157.68964844 26.58265625 158.37929688 26.8828125 159.08984375 C28.2949792 161.50435255 29.43826298 161.93715166 32 163 C35.33333333 164.66666667 38.66666667 166.33333333 42 168 C42 168.33 42 168.66 42 169 C33.751344 168.81406718 28.29269234 167.08827842 22.27734375 161.359375 C16.01506669 154.52780002 14.36677586 148.47608898 14.578125 139.29296875 C15.50028417 132.09500415 19.28950582 126.38342192 24 121 C27.96154943 113.07690115 24.23186083 101.0684001 22.60131836 92.69750977 C22.1838836 90.54384192 21.78923341 88.38680687 21.39648438 86.22851562 C21.13414709 84.84089286 20.87052195 83.45351281 20.60546875 82.06640625 C20.36981201 80.82834229 20.13415527 79.59027832 19.89135742 78.31469727 C19.01677105 75.06236662 17.80344595 72.81322468 16 70 C16 69.34 16 68.68 16 68 C13.69206911 66.84043278 11.37783288 65.70290697 9.046875 64.58984375 C-0.71835849 59.69565682 -8.17867133 53.92632289 -12.25 43.51171875 C-16.16121677 30.41321674 -14.99878121 20.72914621 -8.73046875 8.71875 C-6.30421008 4.90684022 -3.6514701 2.62905847 0 0 Z " fill="#51AAD6" transform="translate(23,153)"/>
    <path d="M0 0 C2.36427071 2.36427071 3.28544423 4.59041353 4.6875 7.625 C10.24097618 18.81224359 17.80290997 25.60315234 29.625 29.875 C39.83865331 32.61051095 51.02436595 31.85366848 60.75 27.875 C69.40681271 25.54431966 76.21937016 26.84854805 84 31 C86.63827985 32.67243116 89.10124303 34.51620943 91.5625 36.4375 C92.23651855 36.95248047 92.91053711 37.46746094 93.60498047 37.99804688 C99.36165708 42.42646462 105.00555772 46.99836912 110.59594727 51.63452148 C114.27131422 54.66957396 117.98426491 57.42992954 122 60 C121.31092878 63.65943647 120.43178734 67.22441959 119.4375 70.8125 C119.16808594 71.78832031 118.89867187 72.76414062 118.62109375 73.76953125 C118.41613281 74.50558594 118.21117187 75.24164063 118 76 C117.34 75.67 116.68 75.34 116 75 C116.66 71.7 117.32 68.4 118 65 C109.83991509 58.08965782 101.533339 51.4420404 93 45 C92.01515625 44.24074219 91.0303125 43.48148438 90.015625 42.69921875 C83.28281788 37.61241558 77.15335446 33.32153057 68.31640625 33.6328125 C65.34260142 34.10420821 62.61161901 35.00295458 59.75 35.9375 C46.8134228 40.13032375 34.60229226 40.09668659 22.3125 33.9375 C12.4191973 28.22663545 5.18539794 20.4325952 0.6875 9.9375 C-0.10585922 6.54769242 -0.13878059 3.46951467 0 0 Z " fill="#4175D7" transform="translate(250,77)"/>
    <path d="M0 0 C3 1 3 1 4.3515625 3.58203125 C4.77179688 4.64808594 5.19203125 5.71414063 5.625 6.8125 C6.05039063 7.87082031 6.47578125 8.92914063 6.9140625 10.01953125 C10.61486367 20.1767661 10.27586418 32.11871114 6.390625 42.1875 C0.46836464 54.16510522 -8.55621583 63.08744573 -21 68 C-30.97804819 70.76584494 -45.71071078 70.67770258 -55 66 C-70.48451709 56.89284481 -70.48451709 56.89284481 -72.68359375 49.79296875 C-72.78800781 49.20128906 -72.89242187 48.60960937 -73 48 C-71.576875 49.299375 -71.576875 49.299375 -70.125 50.625 C-59.71726713 59.5009496 -49.55358822 63.71611116 -35.8515625 63.4140625 C-24.93763122 62.24075954 -14.22958212 56.8165873 -6.75 48.75 C2.02573968 37.70719424 3.96259988 25.76936348 3 12 C2.24066533 7.91363829 1.24059197 3.96546363 0 0 Z " fill="#427BD6" transform="translate(206,300)"/>
    <path d="M0 0 C-0.66 0.33 -1.32 0.66 -2 1 C-3.92475499 0.28150269 -5.81692212 -0.52537742 -7.6875 -1.375 C-12.20156996 -3.31728755 -16.04750679 -4.71427924 -21 -5 C-22.216875 -5.0825 -23.43375 -5.165 -24.6875 -5.25 C-32.68987347 -5.12520665 -40.73016576 -3.04645195 -47 2 C-48.423125 3.11375 -48.423125 3.11375 -49.875 4.25 C-50.57625 4.8275 -51.2775 5.405 -52 6 C-52.33 5.01 -52.66 4.02 -53 3 C-36.85008679 -9.23478274 -17.29610438 -10.90406581 0 0 Z " fill="#77D4FE" transform="translate(143,33)"/>
    <path d="M0 0 C0.33 0 0.66 0 1 0 C1.39325819 6.97669157 0.63096039 12.51656189 -2 19 C-2.99 18.67 -3.98 18.34 -5 18 C-1.92482916 5.33029613 -1.92482916 5.33029613 0 0 Z " fill="#514ED9" transform="translate(441,273)"/>
    <path d="M0 0 C0.33 0 0.66 0 1 0 C1.56293334 7.34940743 0.72343789 13.52445584 -3 20 C-3.99 20.66 -4.98 21.32 -6 22 C-5.690625 21.2575 -5.38125 20.515 -5.0625 19.75 C-4.18430031 17.47701257 -3.41323247 15.3967483 -3 13 C-3.33 12.34 -3.66 11.68 -4 11 C-3.4765625 8.65234375 -3.4765625 8.65234375 -2.625 5.9375 C-2.34914063 5.03902344 -2.07328125 4.14054688 -1.7890625 3.21484375 C-1 1 -1 1 0 0 Z " fill="#4A51DD" transform="translate(432,152)"/>
    <path d="M0 0 C0.70125 0.433125 1.4025 0.86625 2.125 1.3125 C3.548125 2.1478125 3.548125 2.1478125 5 3 C5.86625 3.53625 6.7325 4.0725 7.625 4.625 C14.49068571 7.42213122 21.79870147 7.44025971 29 6 C28.67 6.66 28.34 7.32 28 8 C21.52247857 10.15917381 14.26259426 9.91308089 8 7.1875 C5.13436549 5.71567683 2.34153882 4.23973278 0 2 C0 1.34 0 0.68 0 0 Z " fill="#405AD8" transform="translate(272,353)"/>
    <path d="M0 0 C0.66 0 1.32 0 2 0 C-0.4547847 5.52326557 -3.64186529 9.17209557 -9 12 C-7.60090738 7.54834166 -5.39864635 5.14374788 -2 2 C-1.34 1.34 -0.68 0.68 0 0 Z " fill="#59BCDF" transform="translate(89,37)"/>
    <path d="M0 0 C0.33 0 0.66 0 1 0 C1.33 5.61 1.66 11.22 2 17 C1.01 17 0.02 17 -1 17 C-1.02684679 14.35409986 -1.04676357 11.70846904 -1.0625 9.0625 C-1.07087891 8.30775391 -1.07925781 7.55300781 -1.08789062 6.77539062 C-1.09652441 4.85005687 -1.05224333 2.92464419 -1 1 C-0.67 0.67 -0.34 0.34 0 0 Z " fill="#469CFE" transform="translate(179,265)"/>
    <path d="M0 0 C-0.71285156 0.21914062 -1.42570312 0.43828125 -2.16015625 0.6640625 C-8.71059357 2.83284794 -13.0638265 5.17351924 -18 10 C-17.80078125 7.671875 -17.80078125 7.671875 -17 5 C-14.85546875 3.453125 -14.85546875 3.453125 -12.1875 2.25 C-10.87845703 1.63898438 -10.87845703 1.63898438 -9.54296875 1.015625 C-3.81551363 -1.27183788 -3.81551363 -1.27183788 0 0 Z " fill="#70D6FC" transform="translate(41,147)"/>
    <path d="M0 0 C2.28459758 2.28459758 2.97129748 4.12537344 4.125 7.125 C4.47820312 8.03507812 4.83140625 8.94515625 5.1953125 9.8828125 C5.46085938 10.58148438 5.72640625 11.28015625 6 12 C4.68 12.33 3.36 12.66 2 13 C0.24252386 8.49646738 -0.19294408 4.82360189 0 0 Z " fill="#3B8FDA" transform="translate(250,77)"/>
    <path d="M0 0 C0 3 0 3 -1.3125 4.38671875 C-2.875 5.59114583 -4.4375 6.79557292 -6 8 C-6.33 7.01 -6.66 6.02 -7 5 C-4.69 3.35 -2.38 1.7 0 0 Z " fill="#6CCFF7" transform="translate(97,31)"/>
    <path d="M0 0 C0.66 0.33 1.32 0.66 2 1 C0.66666667 2.33333333 -0.66666667 3.66666667 -2 5 C-2.86625 5.886875 -3.7325 6.77375 -4.625 7.6875 C-7 10 -7 10 -9 11 C-7.59928507 5.70841026 -4.14512755 3.22521956 0 0 Z " fill="#62C1E2" transform="translate(23,153)"/>
    <path d="M0 0 C1.17539996 0.92652701 2.34010577 1.86663387 3.5 2.8125 C4.1496875 3.33457031 4.799375 3.85664063 5.46875 4.39453125 C7 6 7 6 7 9 C0.70535714 4.17857143 0.70535714 4.17857143 0 0 Z " fill="#4390E3" transform="translate(133,348)"/>
    <path d="M0 0 C0.33 0 0.66 0 1 0 C1 3.3 1 6.6 1 10 C0.01 9.67 -0.98 9.34 -2 9 C-1.125 1.125 -1.125 1.125 0 0 Z " fill="#504EE9" transform="translate(441,273)"/>
</svg>
